<?xml version="1.0" encoding="UTF-8"?>
<svg xmlns="http://www.w3.org/2000/svg" xmlns:xlink="http://www.w3.org/1999/xlink" width="30px" height="30px" viewBox="0 0 30 30" version="1.1">
<g id="surface1">
<path style=" stroke:none;fill-rule:nonzero;fill:rgb(99.607843%,99.607843%,99.607843%);fill-opacity:1;" d="M 0 0 C 9.898438 0 19.800781 0 30 0 C 30 9.898438 30 19.800781 30 30 C 20.101562 30 10.199219 30 0 30 C 0 20.101562 0 10.199219 0 0 Z M 0 0 "/>
<path style=" stroke:none;fill-rule:nonzero;fill:rgb(0.784314%,65.098041%,0.784314%);fill-opacity:1;" d="M 26.296875 0.578125 C 26.421875 0.578125 26.421875 0.578125 26.546875 0.578125 C 26.679688 0.578125 26.679688 0.578125 26.816406 0.582031 C 26.949219 0.582031 26.949219 0.582031 27.089844 0.582031 C 27.378906 0.585938 27.671875 0.585938 27.960938 0.589844 C 28.160156 0.59375 28.355469 0.59375 28.550781 0.59375 C 29.035156 0.597656 29.515625 0.601562 30 0.605469 C 29.949219 0.691406 29.894531 0.777344 29.839844 0.867188 C 29.789062 0.867188 29.738281 0.867188 29.683594 0.867188 C 29.652344 0.941406 29.652344 0.941406 29.621094 1.011719 C 29.503906 1.25 29.371094 1.445312 29.207031 1.648438 C 29.152344 1.648438 29.101562 1.648438 29.046875 1.648438 C 29.019531 1.734375 28.996094 1.820312 28.96875 1.90625 C 28.914062 1.90625 28.863281 1.90625 28.808594 1.90625 C 28.78125 1.980469 28.78125 1.980469 28.75 2.054688 C 28.632812 2.292969 28.496094 2.488281 28.332031 2.6875 C 28.28125 2.6875 28.230469 2.6875 28.175781 2.6875 C 28.175781 2.746094 28.175781 2.800781 28.175781 2.859375 C 28.121094 2.859375 28.070312 2.859375 28.015625 2.859375 C 28.015625 2.945312 28.015625 3.03125 28.015625 3.121094 C 27.867188 3.3125 27.867188 3.3125 27.699219 3.46875 C 27.644531 3.46875 27.59375 3.46875 27.539062 3.46875 C 27.523438 3.53125 27.503906 3.59375 27.484375 3.65625 C 27.359375 3.953125 27.195312 4.109375 26.984375 4.335938 C 26.496094 4.894531 26.054688 5.464844 25.644531 6.09375 C 25.46875 6.335938 25.28125 6.546875 25.078125 6.761719 C 25.054688 6.820312 25.027344 6.878906 25 6.9375 C 24.949219 6.9375 24.894531 6.9375 24.839844 6.9375 C 24.820312 6.984375 24.800781 7.03125 24.78125 7.082031 C 24.664062 7.320312 24.519531 7.515625 24.359375 7.726562 C 24.140625 8.011719 24.140625 8.011719 23.96875 8.324219 C 23.914062 8.324219 23.863281 8.324219 23.808594 8.324219 C 23.773438 8.402344 23.773438 8.402344 23.738281 8.480469 C 23.652344 8.671875 23.652344 8.671875 23.492188 8.929688 C 23.441406 8.929688 23.386719 8.929688 23.332031 8.929688 C 23.3125 8.996094 23.289062 9.058594 23.269531 9.125 C 23.179688 9.355469 23.085938 9.523438 22.9375 9.710938 C 22.882812 9.710938 22.832031 9.710938 22.777344 9.710938 C 22.757812 9.773438 22.738281 9.835938 22.71875 9.902344 C 22.609375 10.164062 22.480469 10.351562 22.3125 10.574219 C 22.125 10.816406 21.949219 11.058594 21.796875 11.324219 C 21.753906 11.394531 21.710938 11.460938 21.667969 11.53125 C 21.613281 11.53125 21.5625 11.53125 21.507812 11.53125 C 21.488281 11.597656 21.464844 11.660156 21.445312 11.726562 C 21.347656 11.972656 21.238281 12.128906 21.082031 12.332031 C 20.730469 12.800781 20.414062 13.292969 20.097656 13.789062 C 19.929688 14.050781 19.761719 14.304688 19.578125 14.550781 C 19.429688 14.738281 19.429688 14.738281 19.363281 15 C 19.3125 15 19.261719 15 19.207031 15 C 19.179688 15.113281 19.152344 15.230469 19.128906 15.347656 C 19.074219 15.347656 19.023438 15.347656 18.96875 15.347656 C 18.960938 15.390625 18.957031 15.4375 18.949219 15.484375 C 18.863281 15.78125 18.699219 16.015625 18.53125 16.269531 C 18.296875 16.621094 18.296875 16.621094 18.09375 16.996094 C 18.042969 16.996094 17.992188 16.996094 17.9375 16.996094 C 17.917969 17.054688 17.898438 17.113281 17.878906 17.171875 C 17.757812 17.476562 17.613281 17.75 17.460938 18.035156 C 17.40625 18.035156 17.355469 18.035156 17.300781 18.035156 C 17.28125 18.097656 17.257812 18.160156 17.234375 18.226562 C 17.148438 18.457031 17.050781 18.644531 16.925781 18.851562 C 16.882812 18.921875 16.839844 18.992188 16.792969 19.066406 C 16.75 19.140625 16.703125 19.214844 16.65625 19.292969 C 16.5625 19.445312 16.46875 19.601562 16.375 19.757812 C 16.308594 19.871094 16.308594 19.871094 16.238281 19.988281 C 15.746094 20.8125 15.746094 20.8125 15.316406 21.675781 C 15.265625 21.675781 15.210938 21.675781 15.160156 21.675781 C 15.144531 21.75 15.144531 21.75 15.132812 21.828125 C 15.070312 22.050781 14.984375 22.195312 14.859375 22.386719 C 14.617188 22.773438 14.410156 23.171875 14.207031 23.582031 C 13.957031 24.078125 13.703125 24.5625 13.429688 25.042969 C 13.324219 25.238281 13.324219 25.238281 13.253906 25.492188 C 13.203125 25.492188 13.148438 25.492188 13.09375 25.492188 C 13.066406 25.597656 13.066406 25.597656 13.039062 25.703125 C 12.828125 26.328125 12.488281 26.890625 12.167969 27.453125 C 12.0625 27.660156 11.980469 27.871094 11.90625 28.09375 C 11.851562 28.09375 11.800781 28.09375 11.746094 28.09375 C 11.71875 28.148438 11.695312 28.207031 11.667969 28.265625 C 11.644531 28.222656 11.625 28.175781 11.601562 28.132812 C 10.929688 26.714844 10.929688 26.714844 10.183594 25.351562 C 10.078125 25.144531 10.078125 25.144531 10.078125 24.882812 C 10.027344 24.882812 9.972656 24.882812 9.921875 24.882812 C 9.816406 24.722656 9.722656 24.550781 9.628906 24.378906 C 9.570312 24.277344 9.511719 24.171875 9.453125 24.066406 C 9.398438 23.964844 9.34375 23.859375 9.285156 23.757812 C 8.921875 23.097656 8.519531 22.484375 8.089844 21.875 C 8.046875 21.820312 8.007812 21.761719 7.964844 21.703125 C 7.929688 21.652344 7.894531 21.601562 7.855469 21.546875 C 7.777344 21.417969 7.777344 21.417969 7.777344 21.242188 C 7.699219 21.214844 7.621094 21.1875 7.539062 21.15625 C 7.300781 20.855469 7.300781 20.855469 7.300781 20.636719 C 7.25 20.636719 7.195312 20.636719 7.144531 20.636719 C 7.035156 20.464844 6.929688 20.289062 6.824219 20.117188 C 6.765625 20.050781 6.707031 19.988281 6.648438 19.921875 C 6.601562 19.871094 6.554688 19.820312 6.507812 19.769531 C 6.507812 19.710938 6.507812 19.65625 6.507812 19.59375 C 6.457031 19.59375 6.402344 19.59375 6.347656 19.59375 C 6.230469 19.46875 6.230469 19.46875 6.101562 19.304688 C 6.058594 19.25 6.015625 19.195312 5.972656 19.136719 C 5.871094 18.988281 5.871094 18.988281 5.871094 18.816406 C 5.832031 18.796875 5.789062 18.78125 5.746094 18.761719 C 5.472656 18.589844 5.273438 18.347656 5.054688 18.101562 C 4.773438 17.785156 4.492188 17.476562 4.179688 17.195312 C 4.109375 17.128906 4.039062 17.0625 3.96875 16.996094 C 3.96875 16.9375 3.96875 16.878906 3.96875 16.820312 C 3.890625 16.792969 3.8125 16.761719 3.730469 16.734375 C 3.730469 16.675781 3.730469 16.621094 3.730469 16.5625 C 3.597656 16.503906 3.46875 16.445312 3.332031 16.386719 C 3.332031 16.328125 3.332031 16.273438 3.332031 16.214844 C 3.253906 16.214844 3.175781 16.214844 3.09375 16.214844 C 2.960938 16.074219 2.828125 15.925781 2.699219 15.78125 C 2.542969 15.640625 2.386719 15.507812 2.226562 15.375 C 2.183594 15.335938 2.140625 15.300781 2.09375 15.261719 C 1.703125 14.9375 1.300781 14.625 0.898438 14.316406 C 0.78125 14.230469 0.667969 14.136719 0.554688 14.046875 C 0.554688 14.019531 0.554688 13.988281 0.554688 13.960938 C 1.277344 13.957031 2 13.957031 2.71875 13.953125 C 3.054688 13.953125 3.390625 13.953125 3.726562 13.953125 C 4.046875 13.953125 4.371094 13.953125 4.695312 13.953125 C 4.820312 13.949219 4.941406 13.949219 5.066406 13.949219 C 5.238281 13.949219 5.410156 13.949219 5.582031 13.949219 C 5.679688 13.949219 5.78125 13.949219 5.882812 13.949219 C 6.109375 13.960938 6.109375 13.960938 6.269531 14.046875 C 6.269531 14.101562 6.269531 14.160156 6.269531 14.21875 C 6.316406 14.230469 6.359375 14.238281 6.40625 14.25 C 7.902344 14.71875 9.691406 16.628906 10.714844 17.859375 C 10.714844 17.917969 10.714844 17.976562 10.714844 18.035156 C 10.761719 18.058594 10.808594 18.078125 10.855469 18.101562 C 11.046875 18.21875 11.152344 18.335938 11.289062 18.523438 C 11.332031 18.578125 11.371094 18.632812 11.414062 18.6875 C 11.445312 18.730469 11.476562 18.773438 11.507812 18.816406 C 11.542969 18.742188 11.578125 18.671875 11.617188 18.597656 C 11.660156 18.527344 11.703125 18.457031 11.746094 18.382812 C 11.796875 18.382812 11.851562 18.382812 11.90625 18.382812 C 11.925781 18.316406 11.949219 18.253906 11.972656 18.1875 C 12.050781 17.984375 12.128906 17.792969 12.222656 17.601562 C 12.273438 17.601562 12.328125 17.601562 12.382812 17.601562 C 12.402344 17.542969 12.421875 17.484375 12.441406 17.421875 C 12.558594 17.117188 12.703125 16.84375 12.855469 16.5625 C 12.910156 16.5625 12.960938 16.5625 13.015625 16.5625 C 13.042969 16.445312 13.066406 16.332031 13.09375 16.214844 C 13.148438 16.214844 13.199219 16.214844 13.253906 16.214844 C 13.257812 16.167969 13.265625 16.125 13.269531 16.078125 C 13.359375 15.777344 13.523438 15.542969 13.691406 15.292969 C 13.925781 14.941406 13.925781 14.941406 14.128906 14.566406 C 14.179688 14.566406 14.230469 14.566406 14.285156 14.566406 C 14.3125 14.453125 14.339844 14.335938 14.363281 14.21875 C 14.417969 14.21875 14.46875 14.21875 14.523438 14.21875 C 14.523438 14.132812 14.523438 14.046875 14.523438 13.960938 C 14.578125 13.960938 14.628906 13.960938 14.683594 13.960938 C 14.707031 13.84375 14.734375 13.730469 14.761719 13.613281 C 14.8125 13.613281 14.867188 13.613281 14.921875 13.613281 C 14.921875 13.527344 14.921875 13.441406 14.921875 13.351562 C 14.972656 13.351562 15.027344 13.351562 15.078125 13.351562 C 15.105469 13.285156 15.105469 13.285156 15.132812 13.21875 C 15.28125 12.921875 15.457031 12.652344 15.636719 12.378906 C 15.6875 12.292969 15.6875 12.292969 15.742188 12.207031 C 15.835938 12.066406 15.933594 11.929688 16.03125 11.792969 C 16.085938 11.792969 16.136719 11.792969 16.191406 11.792969 C 16.191406 11.707031 16.191406 11.621094 16.191406 11.53125 C 16.292969 11.414062 16.398438 11.296875 16.507812 11.183594 C 16.585938 11.054688 16.585938 11.054688 16.667969 10.925781 C 16.71875 10.925781 16.769531 10.925781 16.824219 10.925781 C 16.847656 10.875 16.867188 10.828125 16.890625 10.777344 C 17.089844 10.351562 17.304688 10.046875 17.617188 9.710938 C 17.644531 9.652344 17.671875 9.597656 17.699219 9.539062 C 17.75 9.539062 17.804688 9.539062 17.855469 9.539062 C 17.890625 9.460938 17.890625 9.460938 17.925781 9.378906 C 18.015625 9.191406 18.015625 9.191406 18.175781 8.929688 C 18.226562 8.929688 18.28125 8.929688 18.332031 8.929688 C 18.332031 8.875 18.332031 8.816406 18.332031 8.757812 C 18.386719 8.757812 18.4375 8.757812 18.492188 8.757812 C 18.492188 8.671875 18.492188 8.585938 18.492188 8.496094 C 18.640625 8.308594 18.640625 8.308594 18.808594 8.148438 C 18.863281 8.148438 18.914062 8.148438 18.96875 8.148438 C 18.996094 8.054688 18.996094 8.054688 19.023438 7.960938 C 19.148438 7.664062 19.304688 7.507812 19.523438 7.285156 C 19.796875 6.992188 20.0625 6.703125 20.300781 6.378906 C 20.359375 6.304688 20.417969 6.230469 20.476562 6.15625 C 20.527344 6.15625 20.582031 6.15625 20.636719 6.15625 C 20.65625 6.105469 20.675781 6.054688 20.699219 6 C 20.792969 5.808594 20.890625 5.6875 21.03125 5.535156 C 21.101562 5.460938 21.101562 5.460938 21.171875 5.386719 C 21.242188 5.3125 21.242188 5.3125 21.316406 5.234375 C 21.410156 5.132812 21.503906 5.035156 21.597656 4.933594 C 21.640625 4.890625 21.679688 4.84375 21.722656 4.800781 C 21.835938 4.683594 21.835938 4.683594 21.90625 4.507812 C 21.957031 4.507812 22.007812 4.507812 22.0625 4.507812 C 22.0625 4.453125 22.0625 4.394531 22.0625 4.335938 C 22.167969 4.222656 22.167969 4.222656 22.320312 4.085938 C 22.679688 3.753906 23.003906 3.394531 23.332031 3.027344 C 23.433594 2.910156 23.542969 2.800781 23.652344 2.6875 C 23.703125 2.6875 23.753906 2.6875 23.808594 2.6875 C 23.808594 2.628906 23.808594 2.574219 23.808594 2.515625 C 24.246094 2.082031 24.246094 2.082031 24.445312 2.082031 C 24.445312 2.023438 24.445312 1.964844 24.445312 1.90625 C 24.496094 1.90625 24.550781 1.90625 24.601562 1.90625 C 24.628906 1.820312 24.65625 1.734375 24.683594 1.648438 C 24.734375 1.648438 24.789062 1.648438 24.839844 1.648438 C 24.839844 1.589844 24.839844 1.53125 24.839844 1.472656 C 24.917969 1.472656 25 1.472656 25.078125 1.472656 C 25.078125 1.417969 25.078125 1.359375 25.078125 1.300781 C 25.132812 1.300781 25.183594 1.300781 25.238281 1.300781 C 25.265625 1.214844 25.289062 1.128906 25.316406 1.039062 C 25.371094 1.039062 25.421875 1.039062 25.476562 1.039062 C 25.476562 0.984375 25.476562 0.925781 25.476562 0.867188 C 25.753906 0.640625 25.953125 0.574219 26.296875 0.578125 Z M 26.296875 0.578125 "/>
</g>
</svg>
